PathFileType	4	(X/Y/Z)	RBDS024\RBDS024runT45.trc
DataRate	CameraRate	NumFrames	NumMarkers	Units	OrigDataRate	OrigDataStartFrame	OrigNumFrames
150.000000	150.000000	4	32	mm	150.000000	3375	4500
Frame#	Time	L.ASIS			L.Heel.Bottom			L.Heel.Lateral			L.Heel.Top			L.Iliac.Crest			L.MT5			L.PSIS			L.Shank.Bottom.Lateral			L.Shank.Bottom.Medial			L.Shank.Top.Lateral			L.Shank.Top.Medial			L.Thigh.Bottom.Lateral			L.Thigh.Bottom.Medial			L.Thigh.Top.Lateral			L.Thigh.Top.Medial			R.ASIS			R.ASY			R.Heel.Bottom			R.Heel.Lateral			R.Heel.Top			R.Iliac.Crest			R.MT1			R.MT5			R.PSIS			R.Shank.Bottom.Lateral			R.Shank.Bottom.Medial			R.Shank.Top.Lateral			R.Shank.Top.Medial			R.Thigh.Bottom.Lateral			R.Thigh.Bottom.Medial			R.Thigh.Top.Lateral			R.Thigh.Top.Medial			
		X1	Y1	Z1	X2	Y2	Z2	X3	Y3	Z3	X4	Y4	Z4	X5	Y5	Z5	X6	Y6	Z6	X7	Y7	Z7	X8	Y8	Z8	X9	Y9	Z9	X10	Y10	Z10	X11	Y11	Z11	X12	Y12	Z12	X13	Y13	Z13	X14	Y14	Z14	X15	Y15	Z15	X16	Y16	Z16	X17	Y17	Z17	X18	Y18	Z18	X19	Y19	Z19	X20	Y20	Z20	X21	Y21	Z21	X22	Y22	Z22	X23	Y23	Z23	X24	Y24	Z24	X25	Y25	Z25	X26	Y26	Z26	X27	Y27	Z27	X28	Y28	Z28	X29	Y29	Z29	X30	Y30	Z30	X31	Y31	Z31	X32	Y32	Z32	

3376	22.5	1992.159234095851	967.0246369758016	909.5207848546327	1791.864880560784	283.5488448085813	956.9729335434963	1820.724821189543	284.9755239925939	913.1514389556917	1828.585902232247	309.5487164447805	958.426865930738	1900.591432763796	1037.319480342318	844.0296460028658	1929.279568664522	164.3878912526799	867.7764167253554	1805.677562849069	1001.278561495627	947.9479332822896	1944.806119139142	338.5025171129333	897.2689511583196	1912.19974551002	368.8341292061427	922.3743295842037	1993.912927659009	400.9623705881544	879.9612270912619	1963.671112932238	434.6409278938966	907.3276949267859	2112.744223146603	664.1959648717254	845.0498349760684	2071.001368369252	622.7702894746876	885.6465729650205	2026.506066827646	730.2726000227804	827.0248259119751	1985.963177211503	690.7869125741842	865.2180932467797	1965.258260631112	953.4326148314346	1137.529670415954	1527.867959510845	90.43683434554427	1047.93398366716	1359.962988708636	164.0402486326747	1005.574517704512	1384.350174776073	155.7908514892916	1056.936981504218	1389.949606506527	193.1686415694762	1016.110146598057	1906.255584069804	1030.886977512575	1175.141888516808	1536.29747499149	45.94548293800245	989.9442623276924	1488.737750042275	48.1449165162492	1099.332924527163	1801.836480015153	1000.703151233723	1052.760083036613	1481.679924678385	244.7013291825716	1089.366111991384	1464.015640345561	272.4040370753406	1045.102948743485	1521.696690846731	311.760624121353	1112.855881074303	1503.985796998811	337.6603381107597	1069.196121552999	1743.388544044368	616.3823126305482	1166.51329266518	1696.451725539918	636.811399416304	1114.985267046303	1769.089278929429	721.686959891557	1180.053529450003	1725.376993084157	739.7154379318835	1130.043216530528	
3377	22.50666666666667	1993.42928518233	972.5650509082711	910.1180200684627	1817.027076885005	260.9600509788222	956.2987494530397	1845.904133984098	264.4295010615311	912.6419009736917	1851.808375180587	289.7015762697105	957.8690006759959	1902.30959082967	1043.826853177235	844.587000943462	1963.385230322978	151.7783964272194	868.0653998348646	1807.999329873189	1006.563169759074	949.1996906610193	1965.441178552136	327.2717672671035	897.2672264371224	1930.752120187476	354.9884353864937	922.6376369201994	2009.741094357107	393.3167668895318	880.2329846951573	1977.103441960888	424.5882183067096	907.8467171887045	2115.889196721146	671.2357135805312	846.3955039998946	2073.718752806858	629.0562668285941	885.6313200933271	2029.448903631337	736.9142151305869	827.6259266379833	1988.665304831565	696.6696228144867	864.6033745397547	1969.299244590002	955.3608833822537	1136.827152225823	1506.45119437449	93.61451540932055	1050.566406980408	1346.393690380091	181.5190512408748	1005.986349771839	1368.82112257356	170.5599464831509	1057.57120864093	1378.307004809011	207.7707234938186	1017.74253599812	1914.376644625435	1033.638407111054	1175.214488136467	1512.063244160082	48.87231787802683	991.7800320308694	1462.640804224751	53.38885897759367	1099.529581704331	1805.559103291154	1005.513077032529	1054.375689510444	1466.331439657406	255.7733528848883	1090.598616920068	1449.914905601637	282.1430690000306	1045.088970216762	1506.271379150531	323.3057501488362	1112.975081849998	1489.604383013767	347.9785847366279	1068.235588625372	1734.854662270335	626.1946208492758	1165.409162205551	1689.999614862496	648.2942289058085	1112.560964485587	1764.562553349301	730.5219783710053	1179.05192750951	1723.112961995941	750.114852380866	1127.552298661772	
3378	22.51333333333334	1994.439270989174	977.6070395064766	910.4424562640172	1843.64021444414	238.8828863069588	955.6834048554134	1872.390323589303	244.3429539241852	912.188772452633	1876.277924026882	270.1950756814318	957.3487669324908	1903.746281082655	1050.122436950995	845.0902170764105	1998.137579488782	140.243669435424	868.5072525157118	1810.242357220949	1011.766311501832	950.4529959622155	1986.566894195314	316.1894835781316	897.2376662492476	1950.042603005035	341.1633526169901	922.9051850486281	2025.768218034249	385.4290476787259	880.3994074724117	1990.959855398085	414.1585949645079	908.2851028650608	2118.047415946264	677.1929307896783	847.8564794599414	2075.260250303857	634.279106743427	885.4876594805609	2031.632741367658	742.7875110137542	828.3965725464541	1990.424149652762	701.823480101452	863.9645730319373	1973.265835578974	957.1720333379942	1135.993065456501	1485.82338274115	97.87815786067044	1053.351789422173	1334.666960261789	199.4885535395006	1006.050352757731	1354.745487570838	186.0259338350718	1057.920616778289	1368.312539519293	222.7318405862369	1019.131276548872	1922.280808049385	1036.061885107055	1175.292533227448	1488.89865102054	52.96052518633652	993.9415815898159	1437.367980903597	60.07910476898312	1099.763546780285	1809.233043841364	1010.47804781421	1055.906745727318	1452.38688624047	267.0523901541545	1091.832487692519	1437.215793823748	292.1007762497554	1045.135694553453	1492.405720161432	334.952162747623	1113.11305072604	1476.791673505659	358.4093812249756	1067.349005257086	1727.389218636324	635.7354768865393	1164.363772227368	1684.536278503984	659.1611182164755	1110.237216242391	1760.604859540724	739.1189510379977	1177.967282142909	1721.41853361008	759.938502656912	1124.954594095137	
3379	22.52	1995.16029282842	982.0566958670738	910.4776833428008	1871.585693961834	217.473309404759	955.2243936752839	1900.044854597552	224.8757402836528	911.8642622895043	1901.866535737271	251.1675014584895	956.9448467433891	1904.825940513401	1056.073381678502	845.5571315206275	2033.329437896558	129.9807737953808	869.0973956737108	1812.342209018228	1016.82042002513	951.6889369802805	2008.048930280086	305.3553501426452	897.1971078430555	1969.948322821578	327.481878265279	923.1858580738175	2041.897211372463	377.3587739919814	880.4504047587618	2005.159208509615	403.432151047762	908.6238883211902	2119.166098155276	681.9460948075342	849.3573008856624	2075.604990952401	638.3663211562193	885.2315502570715	2033.008853756611	747.7719012718503	829.2919847045712	1991.207984832124	706.1810427830454	863.342169121825	1977.053645141468	958.9372226630254	1135.024214663069	1465.977756973094	103.4536141650416	1056.148822907472	1324.444575048519	217.7974392834018	1005.757077067947	1341.912760522468	202.1410492970762	1057.966980981034	1359.592287597661	238.0003358253031	1020.192050603003	1929.779722697115	1038.262995725452	1175.331910717488	1466.791417457259	58.39255515502185	996.3263621453501	1413.081787781919	68.39553574737251	1100.027662477982	1812.768521376034	1015.536097345609	1057.337625465371	1439.72313017782	278.5484061803388	1092.973167069051	1425.766793947268	302.3746523852184	1045.200448804093	1480.064091019247	346.6311006622535	1113.230114726902	1465.492157471096	368.9639781554667	1066.541668900217	1721.11343938326	644.718111461816	1163.421435804225	1680.063525395457	669.1545932989525	1108.151243403502	1757.305394181159	747.2301652437669	1176.873509372842	1720.230342312301	768.9699209149937	1122.442049152677	
